HIERARCHY
ROOT Hips
{
	OFFSET 0.000000 0.000000 0.000000
	CHANNELS 6 Xposition Yposition Zposition Zrotation Yrotation Xrotation 
	JOINT LHipJoint
	{
		OFFSET 0.000000 0.000000 0.000000
		CHANNELS 3 Zrotation Yrotation Xrotation
		JOINT LeftUpLeg
		{
			OFFSET 1.363060 -1.794630 0.839290
			CHANNELS 3 Zrotation Yrotation Xrotation
			JOINT LeftLeg
			{
				OFFSET 2.448110 -6.726130 0.000000
				CHANNELS 3 Zrotation Yrotation Xrotation
				JOINT LeftFoot
				{
					OFFSET 2.562200 -7.039590 0.000000
					CHANNELS 3 Zrotation Yrotation Xrotation
					JOINT LeftToeBase
					{
						OFFSET 0.157640 -0.433110 2.322550
						CHANNELS 3 Zrotation Yrotation Xrotation
						End Site
						{
							OFFSET 0.000000 0.000000 0.000000
						}
					}
				}
			}
		}
	}
	JOINT RHipJoint
	{
		OFFSET 0.000000 0.000000 0.000000
		CHANNELS 3 Zrotation Yrotation Xrotation
		JOINT RightUpLeg
		{
			OFFSET -1.305520 -1.794630 0.839290
			CHANNELS 3 Zrotation Yrotation Xrotation
			JOINT RightLeg
			{
				OFFSET -2.542530 -6.985550 0.000000
				CHANNELS 3 Zrotation Yrotation Xrotation
				JOINT RightFoot
				{
					OFFSET -2.568260 -7.056230 0.000000
					CHANNELS 3 Zrotation Yrotation Xrotation
					JOINT RightToeBase
					{
						OFFSET -0.164730 -0.452590 2.363150
						CHANNELS 3 Zrotation Yrotation Xrotation
						End Site
						{
							OFFSET 0.000000 0.000000 0.000000
						}
					}
				}
			}
		}
	}
	JOINT LowerBack
	{
		OFFSET 0.000000 0.000000 0.000000
		CHANNELS 3 Zrotation Yrotation Xrotation
		JOINT Spine
		{
			OFFSET 0.028270 2.035590 -0.193380
			CHANNELS 3 Zrotation Yrotation Xrotation
			JOINT Spine1
			{
				OFFSET 0.056720 2.048850 -0.042750
				CHANNELS 3 Zrotation Yrotation Xrotation
				JOINT Neck
				{
					OFFSET 0.000000 0.000000 0.000000
					CHANNELS 3 Zrotation Yrotation Xrotation
					JOINT Neck1
					{
						OFFSET -0.054170 1.746240 0.172020
						CHANNELS 3 Zrotation Yrotation Xrotation
						JOINT Head
						{
							OFFSET 0.104070 1.761360 -0.123970
							CHANNELS 3 Zrotation Yrotation Xrotation
							End Site
							{
								OFFSET 0.000000 0.000000 0.000000
							}
						}
					}
				}
				JOINT LeftShoulder
				{
					OFFSET 0.000000 0.000000 0.000000
					CHANNELS 3 Zrotation Yrotation Xrotation
					JOINT LeftArm
					{
						OFFSET 3.362410 1.200890 -0.311210
						CHANNELS 3 Zrotation Yrotation Xrotation
						JOINT LeftForeArm
						{
							OFFSET 4.983000 -0.000000 -0.000000
							CHANNELS 3 Zrotation Yrotation Xrotation
							JOINT LeftHand
							{
								OFFSET 3.483560 -0.000000 -0.000000
								CHANNELS 3 Zrotation Yrotation Xrotation
								JOINT LeftFingerBase
								{
									OFFSET 0.000000 0.000000 0.000000
									CHANNELS 3 Zrotation Yrotation Xrotation
									JOINT LeftHandIndex1
									{
										OFFSET 0.715260 -0.000000 -0.000000
										CHANNELS 3 Zrotation Yrotation Xrotation
										End Site
										{
											OFFSET 0.000000 0.000000 0.000000
										}
									}
								}
								JOINT LThumb
								{
									OFFSET 0.000000 0.000000 0.000000
									CHANNELS 3 Zrotation Yrotation Xrotation
									End Site
									{
										OFFSET 0.000000 0.000000 0.000000
									}
								}
							}
						}
					}
				}
				JOINT RightShoulder
				{
					OFFSET 0.000000 0.000000 0.000000
					CHANNELS 3 Zrotation Yrotation Xrotation
					JOINT RightArm
					{
						OFFSET -3.136600 1.374050 -0.404650
						CHANNELS 3 Zrotation Yrotation Xrotation
						JOINT RightForeArm
						{
							OFFSET -5.241900 -0.000000 -0.000000
							CHANNELS 3 Zrotation Yrotation Xrotation
							JOINT RightHand
							{
								OFFSET -3.444170 -0.000000 -0.000000
								CHANNELS 3 Zrotation Yrotation Xrotation
								JOINT RightFingerBase
								{
									OFFSET 0.000000 0.000000 0.000000
									CHANNELS 3 Zrotation Yrotation Xrotation
									JOINT RightHandIndex1
									{
										OFFSET -0.622530 -0.000000 -0.000000
										CHANNELS 3 Zrotation Yrotation Xrotation
										End Site
										{
											OFFSET 0.000000 0.000000 0.000000
										}
									}
								}
								JOINT RThumb
								{
									OFFSET 0.000000 0.000000 0.000000
									CHANNELS 3 Zrotation Yrotation Xrotation
									End Site
									{
										OFFSET 0.000000 0.000000 0.000000
									}
								}
							}
						}
					}
				}
			}
		}
	}
}
MOTION
Frames: 8
Frame Time: 0.008333
-2.711282 16.705141 -1.925991 44.714233 87.185644 64.884425 -8.713714 0.639546 3.875003 -12.898008 -2.244267 -48.835393 -3.009813 0.806384 25.743262 -0.535529 -4.337314 -0.531913 -0.248000 -0.000000 -27.121600 11.520978 -4.586718 0.904101 3.836631 -5.925936 -5.782497 0.751917 -2.221002 30.356215 0.581390 14.357007 17.184291 5.683500 0.000000 -81.779099 -6.618094 -1.708557 -5.696866 -1.882005 -1.359603 -4.006545 -5.577765 -1.432738 -0.023856 14.004323 -8.249700 -6.088148 -2.251689 -0.193515 0.416395 0.000000 0.000000 0.000000 -1.474709 10.712004 0.760210 -68.907242 22.192542 7.044572 -0.263677 -86.468040 -0.027901 10.430378 2.094264 0.182607 -0.156397 0.144474 -0.000000 0.000000 0.000000 0.000000 0.000000 0.000000 0.000000 11.924486 -2.373694 0.635635 59.176379 27.034078 32.125980 179.290095 82.914577 -179.960663 4.764086 4.910385 0.227149 -0.031631 -0.487945 -0.000000 0.000000 0.000000 0.000000 0.000000 0.000000 0.000000 
-2.531450 16.664523 -1.915083 45.046403 86.898656 65.050374 -8.678044 0.665060 3.791919 -13.052766 -2.499443 -49.097026 -2.788430 1.018036 28.471367 -0.375611 -3.512701 -1.422985 -0.128700 0.000000 -25.079800 11.728137 -4.536685 0.802113 3.154590 -6.541219 -6.646623 0.554524 -2.358970 32.870444 0.472758 15.146318 18.678802 6.414600 -0.000001 -81.951400 -6.902892 -1.799347 -5.542433 -1.945082 -1.422835 -3.972406 -5.639786 -1.493647 -0.021150 14.166563 -8.225965 -6.076171 -2.247791 -0.192813 0.413758 0.000000 0.000000 0.000000 -1.784815 10.892969 0.804415 -68.335401 21.453511 7.306561 -0.294164 -85.814012 -0.028816 10.863692 2.101247 0.191048 -0.163700 0.142512 -0.000000 0.000000 0.000000 0.000000 0.000000 0.000000 0.000000 11.990161 -2.380521 0.542174 59.667581 26.817287 31.801946 179.295709 82.894194 -179.960442 4.791643 4.956955 0.230727 -0.034447 -0.491588 -0.000000 0.000000 0.000000 0.000000 0.000000 0.000000 0.000000 
-2.356069 16.634838 -1.902729 44.603787 86.521894 64.468817 -8.649797 0.679343 3.716538 -13.196477 -2.779456 -49.081225 -2.607600 1.162836 30.689608 -0.204017 -2.638363 -2.480370 -0.023400 -0.000001 -23.603300 11.905811 -4.454318 0.710663 2.495554 -6.984879 -7.620729 0.346494 -2.487314 35.434185 0.332168 15.699563 20.419119 7.151900 -0.000000 -81.367600 -7.199134 -1.861531 -5.393331 -2.013273 -1.456753 -3.941414 -5.713222 -1.525362 -0.026038 14.298968 -8.219716 -6.065555 -2.249446 -0.192496 0.410450 0.000000 0.000000 0.000000 -2.098005 11.057728 0.851219 -67.753166 20.514984 7.593926 -0.329258 -85.040530 -0.029782 11.305447 2.095005 0.198389 -0.171162 0.141023 -0.000000 0.000000 0.000000 0.000000 0.000000 0.000000 0.000000 12.044106 -2.394066 0.429587 60.328115 26.455775 31.433491 179.315651 82.993179 -179.960891 4.721274 4.974260 0.228227 -0.035131 -0.494285 -0.000000 0.000000 0.000000 0.000000 0.000000 0.000000 0.000000 
-2.184769 16.616391 -1.888668 43.502180 86.048252 63.245843 -8.621452 0.691841 3.641412 -13.362532 -3.042855 -48.800544 -2.477475 1.248249 32.382293 -0.026482 -1.755472 -3.677237 0.053901 -0.000000 -22.715300 12.061037 -4.339022 0.632449 1.853404 -7.263947 -8.685296 0.136624 -2.603532 38.010296 0.163465 15.955658 22.320324 7.825700 -0.000000 -79.956500 -7.513903 -1.893565 -5.248436 -2.087881 -1.459282 -3.912450 -5.797258 -1.525734 -0.034372 14.410131 -8.236014 -6.058658 -2.257183 -0.192570 0.405750 0.000000 0.000000 0.000000 -2.381381 11.211979 0.897684 -67.194091 19.391644 7.899930 -0.368576 -84.159030 -0.030788 11.742288 2.073753 0.203927 -0.178532 0.140128 0.000000 0.000000 0.000000 0.000000 0.000000 0.000000 0.000000 12.103649 -2.420239 0.301964 61.131125 25.967016 31.031199 179.349081 83.200270 -179.962057 4.548254 4.955498 0.219148 -0.033614 -0.495934 -0.000000 0.000000 0.000000 0.000000 0.000000 0.000000 0.000000 
-2.016879 16.609042 -1.873882 41.679343 85.488923 61.312167 -8.606596 0.701748 3.558952 -13.537018 -3.225624 -48.297744 -2.396453 1.285736 33.584867 0.150867 -0.910903 -4.975746 0.092700 -0.000001 -22.370800 12.177651 -4.199093 0.573563 1.273390 -7.360133 -9.807639 -0.065526 -2.706233 40.548866 -0.027091 15.814513 24.268378 8.323400 0.000000 -77.764400 -7.816993 -1.891666 -5.110723 -2.162363 -1.429290 -3.887487 -5.890570 -1.493795 -0.050649 14.497357 -8.266767 -6.049283 -2.271487 -0.193190 0.401799 0.000000 0.000000 0.000000 -2.639640 11.336068 0.940219 -66.681075 18.148665 8.195395 -0.410138 -83.221253 -0.031792 12.156919 2.040246 0.207560 -0.185510 0.139785 0.000000 0.000000 0.000000 0.000000 0.000000 0.000000 0.000000 12.168324 -2.451125 0.164981 62.041654 25.358006 30.600515 179.393759 83.498705 -179.963923 4.279581 4.897773 0.204086 -0.030195 -0.496438 -0.000000 0.000000 0.000000 0.000000 0.000000 0.000000 0.000000 
-1.851832 16.612231 -1.858915 39.301919 84.850284 58.821313 -8.606170 0.713077 3.463133 -13.717492 -3.288649 -47.596822 -2.359359 1.284038 34.334271 0.324435 -0.122461 -6.314979 0.090699 -0.000000 -22.487800 12.257570 -4.039741 0.533859 0.766333 -7.293062 -10.959683 -0.254804 -2.795849 43.013697 -0.233807 15.200690 26.138211 8.532400 0.000000 -75.009900 -8.091791 -1.857285 -4.977466 -2.232990 -1.369580 -3.866170 -5.991007 -1.432296 -0.075200 14.563294 -8.306686 -6.033929 -2.292769 -0.194451 0.399769 0.000000 0.000000 0.000000 -2.862530 11.423266 0.975505 -66.238478 16.838692 8.461625 -0.452082 -82.271141 -0.032773 12.532992 1.998103 0.209288 -0.191841 0.140013 0.000000 0.000000 0.000000 0.000000 0.000000 0.000000 0.000000 12.245280 -2.483308 0.024218 63.021455 24.649148 30.150860 179.447122 83.871432 -179.966419 3.928628 4.802779 0.184037 -0.025294 -0.495805 -0.000000 0.000000 0.000000 0.000000 0.000000 0.000000 0.000000 
-1.688968 16.625055 -1.844036 36.620838 84.138795 56.011469 -8.615758 0.731041 3.349968 -13.906377 -3.211606 -46.714631 -2.358342 1.250243 34.671921 0.491327 0.607523 -7.619443 0.052000 -0.000000 -22.956800 12.310478 -3.864989 0.510276 0.326977 -7.099177 -12.115836 -0.429598 -2.874117 45.374654 -0.452914 14.057599 27.806803 8.355300 -0.000000 -72.031600 -8.329023 -1.796600 -4.843897 -2.297303 -1.286984 -3.846504 -6.095387 -1.347874 -0.104236 14.613950 -8.356469 -6.012411 -2.321344 -0.196380 0.399790 0.000000 0.000000 0.000000 -3.036013 11.476610 1.000202 -65.886548 15.502549 8.689956 -0.492592 -81.348229 -0.033730 12.856468 1.951379 0.209309 -0.197367 0.140870 0.000000 0.000000 0.000000 0.000000 0.000000 0.000000 0.000000 12.347389 -2.521500 -0.114456 64.028819 23.876509 29.700360 179.506181 84.302756 -179.969435 3.512028 4.675670 0.160496 -0.019269 -0.494087 -0.000000 0.000000 0.000000 0.000000 0.000000 0.000000 0.000000 
-1.527629 16.646470 -1.829847 33.801894 83.369583 53.042180 -8.637744 0.757647 3.218532 -14.093030 -2.978096 -45.680101 -2.383096 1.192016 34.654294 0.647085 1.274277 -8.813326 -0.014200 0.000000 -23.648400 12.338868 -3.681193 0.500972 -0.034300 -6.808483 -13.255825 -0.590716 -2.942804 47.604690 -0.682214 12.345721 29.158283 7.722700 0.000000 -69.180400 -8.510240 -1.717253 -4.709616 -2.350883 -1.190621 -3.828296 -6.200637 -1.249597 -0.137951 14.650086 -8.409499 -5.980910 -2.357152 -0.199039 0.403193 0.000000 0.000000 0.000000 -3.159526 11.488961 1.012341 -65.635094 14.194785 8.866601 -0.529357 -80.501715 -0.034662 13.116546 1.905484 0.208024 -0.201990 0.142363 0.000000 0.000000 0.000000 0.000000 0.000000 0.000000 0.000000 12.475663 -2.562847 -0.246837 65.030179 23.060965 29.262507 179.567643 84.775135 -179.972790 3.056753 4.523196 0.135558 -0.012735 -0.491337 -0.000000 0.000000 0.000000 0.000000 0.000000 0.000000 0.000000 
